<svg xmlns="http://www.w3.org/2000/svg" viewBox="0 0 640.72 640.72"><defs><style>.cls-1{fill:#e83c48;}</style></defs><title>checkNo</title><g id="Calque_2" data-name="Calque 2"><g id="Capa_1" data-name="Capa 1"><path class="cls-1" d="M626.94,99.27a23.14,23.14,0,0,0-6.77-16.36l-61.41-61.4a23.13,23.13,0,0,0-32.71,0L320,227.58l-98.49-98.49a23.15,23.15,0,0,0-32.72,0l-61.4,61.41a23.13,23.13,0,0,0,0,32.71l98.49,98.49-98.49,98.5a23.12,23.12,0,0,0,0,32.71l61.4,61.41a23.15,23.15,0,0,0,32.72,0L320,415.82l98.5,98.5a23.14,23.14,0,0,0,32.71,0l61.41-61.41a23.13,23.13,0,0,0,0-32.71l-98.5-98.5L620.17,115.63A23.12,23.12,0,0,0,626.94,99.27Z"/><path class="cls-1" d="M602.09,167.71l-46,46A258.33,258.33,0,1,1,428.37,85.19l45.87-45.88a322.65,322.65,0,0,0-29.17-14.12A320.36,320.36,0,0,0,93.83,546.89a320.43,320.43,0,0,0,521.7-351.24Q609.47,181.31,602.09,167.71Z"/></g></g></svg>