<svg xmlns="http://www.w3.org/2000/svg" viewBox="0 0 640.72 640.72"><defs><style>.cls-1{fill:#e83c48;}.cls-2{fill:#4a4a49;}</style></defs><title>Fichier 1</title><g id="Calque_2" data-name="Calque 2"><g id="Capa_1" data-name="Capa 1"><path class="cls-1" d="M623,82.91l-61.4-61.4a23.15,23.15,0,0,0-32.72,0L269.61,280.75l-59.94-59.93a23.13,23.13,0,0,0-32.72,0l-61.4,61.4a23.15,23.15,0,0,0,0,32.72L191,390.41c.26.29.53.57.8.84l61.41,61.41a23.14,23.14,0,0,0,32.71,0l337-337a23.13,23.13,0,0,0,0-32.72Z"/><path class="cls-2" d="M603.06,169.54l-46,46.05A258.33,258.33,0,1,1,430.29,86.07L476,40.32A320,320,0,1,0,615.53,195.65Q609.88,182.27,603.06,169.54Z"/></g></g></svg>