<svg xmlns="http://www.w3.org/2000/svg" viewBox="0 0 21.11 35.13"><defs><style>.cls-1{fill:#272525;}</style></defs><title>marker</title><g id="Calque_2" data-name="Calque 2"><g id="Layer_1" data-name="Layer 1"><path class="cls-1" d="M20.82,13.05a10.93,10.93,0,0,0,.29-2.49A10.56,10.56,0,1,0,0,10.56a10.41,10.41,0,0,0,.3,2.49,15.69,15.69,0,0,0,1.15,4.11c1,2.18,5.4,9.37,7.41,12.65-2.71.35-4,1.51-4,2.61,0,1.31,1.77,2.71,5.67,2.71s5.66-1.4,5.66-2.71c0-1.1-1.25-2.26-4-2.61,2-3.28,6.37-10.47,7.4-12.65A15.66,15.66,0,0,0,20.82,13.05ZM14.59,32.42c-.11.31-1.47,1.08-4,1.08s-4-.79-4-1.07c.07-.27,1.19-.94,3.29-1.07l0,.09a.81.81,0,0,0,1.39,0l.05-.09C13.38,31.49,14.49,32.14,14.59,32.42ZM19.22,12.7a.13.13,0,0,1,0,.06,14.51,14.51,0,0,1-1,3.7c-1.05,2.2-5.83,10.05-7.63,13-1.81-2.95-6.59-10.8-7.64-13a14.94,14.94,0,0,1-1-3.7.13.13,0,0,0,0-.06,9.08,9.08,0,0,1-.26-2.14,8.93,8.93,0,1,1,17.85,0A8.59,8.59,0,0,1,19.22,12.7Z"/><path class="cls-1" d="M10.56,4.62a5.67,5.67,0,1,0,5.66,5.67A5.67,5.67,0,0,0,10.56,4.62Zm0,9.7a4,4,0,1,1,4-4A4,4,0,0,1,10.56,14.32Z"/></g></g></svg>