<svg xmlns="http://www.w3.org/2000/svg" viewBox="0 0 32.52 32.81"><defs><style>.cls-1{fill:#272525;}</style></defs><title>Fichier 2</title><g id="Calque_2" data-name="Calque 2"><g id="Layer_1" data-name="Layer 1"><path class="cls-1" d="M1.93,6.28a3.49,3.49,0,0,0-.37.47A6,6,0,0,0,.15,12.31,25.45,25.45,0,0,0,22.78,32.78l.72,0A6.57,6.57,0,0,0,27,31.9a4.82,4.82,0,0,0,1.24-1l1-1.06a5.08,5.08,0,0,0-.36-7.17l-1.62-1.46a5.05,5.05,0,0,0-3.4-1.32A5.1,5.1,0,0,0,20,21.56l-1,1.07a5.35,5.35,0,0,0-.9,1.39,17.93,17.93,0,0,1-8.92-8.17,5.1,5.1,0,0,0,1.85-1.3l1-1.06a5.06,5.06,0,0,0-.36-7.17L10.06,4.85a5.08,5.08,0,0,0-7.17.36Zm1.93-.19a3.78,3.78,0,0,1,5.33-.27l1.62,1.47a3.78,3.78,0,0,1,.27,5.32l-1,1.07h0a3.79,3.79,0,0,1-1.7,1.08l-.29.08a.63.63,0,0,0-.41.37.62.62,0,0,0,0,.55l.14.27a19.18,19.18,0,0,0,10.19,9.35l.25.1a.65.65,0,0,0,.51,0,.71.71,0,0,0,.35-.39l.08-.25A3.8,3.8,0,0,1,20,23.5l1-1.06a3.77,3.77,0,0,1,5.32-.27l1.63,1.47A3.76,3.76,0,0,1,28.19,29l-1,1.07a3.83,3.83,0,0,1-.93.75,5.54,5.54,0,0,1-3.41.7A24.15,24.15,0,0,1,1.43,12.06a4.77,4.77,0,0,1,1-4.36l.06,0,0-.05.05-.07a3.57,3.57,0,0,1,.3-.38Z"/><path class="cls-1" d="M32.52,15.49A15.51,15.51,0,0,0,17,0a1.36,1.36,0,1,0,0,2.71A12.8,12.8,0,0,1,29.81,15.49a1.36,1.36,0,1,0,2.71,0Zm-1.36.71a.7.7,0,0,1-.7-.71A13.45,13.45,0,0,0,17,2.06a.7.7,0,0,1-.71-.7A.71.71,0,0,1,17,.65,14.86,14.86,0,0,1,31.87,15.49.71.71,0,0,1,31.16,16.2Z"/><path class="cls-1" d="M16.86,5.05a1.36,1.36,0,0,0,0,2.71,7.9,7.9,0,0,1,7.9,7.9,1.36,1.36,0,0,0,2.72,0A10.63,10.63,0,0,0,16.86,5.05Zm9.26,11.31a.7.7,0,0,1-.71-.7,8.55,8.55,0,0,0-8.55-8.55.7.7,0,0,1-.7-.71.7.7,0,0,1,.7-.7,10,10,0,0,1,10,10A.7.7,0,0,1,26.12,16.36Z"/></g></g></svg>